<svg data-v-fde0c5aa="" xmlns="http://www.w3.org/2000/svg" viewBox="0 0 300 300" class="iconLeft"><!----><defs data-v-fde0c5aa=""><!----></defs><rect data-v-fde0c5aa="" fill="transparent" x="0" y="0" width="300px" height="300px" class="logo-background-square"></rect><defs data-v-fde0c5aa=""><!----></defs><g data-v-fde0c5aa="" id="3cf2010b-8ea0-442c-aae8-9cb5f3f7d1d0" fill="#000000" transform="matrix(1.8972549790314017,0,0,1.8972549790314017,79.77975359478103,135.22987027773866)"><path d="M8.61 11.72L8.61 12.33Q7.28 12.74 5.88 12.74L5.88 12.74Q0.75 12.74 0.75 7.65L0.75 7.65Q0.75 2.83 5.88 2.83L5.88 2.83Q7.28 2.83 8.61 3.24L8.61 3.24L8.61 3.86Q7.28 3.45 6.02 3.45L6.02 3.45Q1.47 3.45 1.47 7.65L1.47 7.65Q1.47 12.13 6.02 12.13L6.02 12.13Q7.28 12.13 8.61 11.72L8.61 11.72ZM11.07 9.06Q11.07 12.13 13.71 12.13L13.71 12.13Q16.34 12.13 16.34 9.06L16.34 9.06Q16.34 6.04 13.71 6.04L13.71 6.04Q11.07 6.04 11.07 9.06L11.07 9.06ZM10.36 9.08L10.36 9.08Q10.36 5.43 13.71 5.43L13.71 5.43Q17.06 5.43 17.06 9.08L17.06 9.08Q17.06 12.74 13.71 12.74L13.71 12.74Q10.37 12.74 10.36 9.08ZM19.62 12.67L18.90 12.67L18.90 5.50L19.41 5.50L19.50 6.69Q20.58 5.50 21.91 5.50L21.91 5.50L21.91 6.07Q20.62 6.07 19.62 7.32L19.62 7.32L19.62 12.67ZM23.21 10.74L23.21 4.33L23.72 4.33L23.85 5.50L26.00 5.50L26.00 6.11L23.91 6.11L23.91 10.64Q23.91 12.06 24.95 12.06L24.95 12.06L26.00 12.06L26.00 12.67L24.96 12.67Q23.21 12.67 23.21 10.74L23.21 10.74ZM30.42 5.50L30.42 5.50Q33.37 5.50 33.37 8.76L33.37 8.76Q33.37 8.99 33.35 9.24L33.35 9.24L27.90 9.24Q27.90 12.06 30.88 12.06L30.88 12.06Q32.11 12.06 33.06 11.72L33.06 11.72L33.06 12.33Q32.11 12.67 30.88 12.67L30.88 12.67Q27.19 12.67 27.19 9.00L27.19 9.00Q27.19 5.50 30.42 5.50ZM27.90 8.60L27.90 8.60L32.68 8.60Q32.63 6.10 30.42 6.10L30.42 6.10Q28.03 6.10 27.90 8.60ZM34.36 12.67L37.15 9.08L34.36 5.50L35.21 5.50L37.57 8.53L39.93 5.50L40.78 5.50L38.00 9.08L40.78 12.67L39.93 12.67L37.57 9.64L35.21 12.67L34.36 12.67ZM53.05 11.72L53.05 12.33Q51.72 12.74 50.32 12.74L50.32 12.74Q45.19 12.74 45.19 7.65L45.19 7.65Q45.19 2.83 50.32 2.83L50.32 2.83Q51.72 2.83 53.05 3.24L53.05 3.24L53.05 3.86Q51.72 3.45 50.46 3.45L50.46 3.45Q45.91 3.45 45.91 7.65L45.91 7.65Q45.91 12.13 50.46 12.13L50.46 12.13Q51.72 12.13 53.05 11.72L53.05 11.72ZM55.86 12.67L55.14 12.67L55.14 5.50L55.65 5.50L55.74 6.69Q56.82 5.50 58.15 5.50L58.15 5.50L58.15 6.07Q56.86 6.07 55.86 7.32L55.86 7.32L55.86 12.67ZM62.37 5.50L62.37 5.50Q65.32 5.50 65.32 8.76L65.32 8.76Q65.32 8.99 65.30 9.24L65.30 9.24L59.86 9.24Q59.86 12.06 62.84 12.06L62.84 12.06Q64.06 12.06 65.01 11.72L65.01 11.72L65.01 12.33Q64.06 12.67 62.84 12.67L62.84 12.67Q59.14 12.67 59.14 9.00L59.14 9.00Q59.14 5.50 62.37 5.50ZM59.86 8.60L59.86 8.60L64.63 8.60Q64.59 6.10 62.37 6.10L62.37 6.10Q59.98 6.10 59.86 8.60ZM66.75 10.64L66.75 10.64Q66.75 8.50 69.60 8.50L69.60 8.50Q70.60 8.50 71.74 8.64L71.74 8.64L71.74 7.76Q71.74 6.11 69.67 6.11L69.67 6.11Q68.50 6.11 67.33 6.45L67.33 6.45L67.33 5.84Q68.50 5.50 69.67 5.50L69.67 5.50Q72.46 5.50 72.46 7.72L72.46 7.72L72.46 12.67L72.02 12.67L71.86 11.96Q70.51 12.67 69.25 12.67L69.25 12.67Q66.75 12.67 66.75 10.64ZM69.60 9.12L69.60 9.12Q67.47 9.12 67.47 10.62L67.47 10.62Q67.47 12.06 69.25 12.06L69.25 12.06Q70.56 12.06 71.74 11.36L71.74 11.36L71.74 9.26Q70.60 9.12 69.60 9.12ZM74.62 10.74L74.62 4.33L75.13 4.33L75.26 5.50L77.41 5.50L77.41 6.11L75.32 6.11L75.32 10.64Q75.32 12.06 76.36 12.06L76.36 12.06L77.41 12.06L77.41 12.67L76.37 12.67Q74.62 12.67 74.62 10.74L74.62 10.74ZM79.00 2.90L79.86 2.90L79.86 3.72L79.00 3.72L79.00 2.90ZM79.07 5.50L79.79 5.50L79.79 12.67L79.07 12.67L79.07 5.50ZM84.10 12.67L81.09 5.50L81.91 5.50L84.53 12.05L87.17 5.50L87.99 5.50L84.94 12.67L84.10 12.67ZM92.05 5.50L92.05 5.50Q94.99 5.50 94.99 8.76L94.99 8.76Q94.99 8.99 94.98 9.24L94.98 9.24L89.53 9.24Q89.53 12.06 92.51 12.06L92.51 12.06Q93.73 12.06 94.68 11.72L94.68 11.72L94.68 12.33Q93.73 12.67 92.51 12.67L92.51 12.67Q88.81 12.67 88.81 9.00L88.81 9.00Q88.81 5.50 92.05 5.50ZM89.53 8.60L89.53 8.60L94.30 8.60Q94.26 6.10 92.05 6.10L92.05 6.10Q89.65 6.10 89.53 8.60Z"></path></g><defs data-v-fde0c5aa=""><linearGradient data-v-fde0c5aa="" gradientTransform="rotate(25)" id="b0962388-196f-491b-9330-27a96bbcedcb" x1="0%" y1="0%" x2="100%" y2="0%"><stop data-v-fde0c5aa="" offset="0%" stop-color="#122663" stop-opacity="1"></stop><stop data-v-fde0c5aa="" offset="100%" stop-color="#5DD7AD" stop-opacity="1"></stop></linearGradient></defs><g data-v-fde0c5aa="" id="23bcd441-c1ce-49f8-9bff-0ebf4c423d7e" stroke="none" fill="url(#b0962388-196f-491b-9330-27a96bbcedcb)" transform="matrix(0.8813342134079557,0,0,0.8813342134079557,40,135.89865258547272)"><path d="M16 32c8.837 0 16-7.163 16-16S24.837 0 16 0 0 7.163 0 16s7.163 16 16 16zM14.817 6.421h2v8.886h8.887v2H14.817V6.421zm-5.959.437h2v14.283h14.283v2H8.858V6.858z"></path></g><!----></svg>